{
  "asset": {
    "generator": "glTF-Transform v4.2.1",
    "version": "2.0"
  },
  "accessors": [
    {
      "type": "VEC3",
      "componentType": 5126,
      "count": 55530,
      "max": [
        213.8179931640625,
        247.32603454589844,
        112.3172836303711
      ],
      "min": [
        -210.8396453857422,
        -164.43966674804688,
        -120.43941497802734
      ],
      "bufferView": 0,
      "byteOffset": 0
    },
    {
      "type": "VEC3",
      "componentType": 5126,
      "count": 55530,
      "bufferView": 0,
      "byteOffset": 12
    },
    {
      "type": "VEC2",
      "componentType": 5126,
      "count": 55530,
      "bufferView": 0,
      "byteOffset": 24
    },
    {
      "type": "SCALAR",
      "componentType": 5125,
      "count": 3807,
      "bufferView": 1,
      "byteOffset": 0
    },
    {
      "type": "SCALAR",
      "componentType": 5125,
      "count": 864,
      "bufferView": 1,
      "byteOffset": 15228
    },
    {
      "type": "SCALAR",
      "componentType": 5125,
      "count": 4056,
      "bufferView": 1,
      "byteOffset": 18684
    },
    {
      "type": "SCALAR",
      "componentType": 5125,
      "count": 864,
      "bufferView": 1,
      "byteOffset": 34908
    },
    {
      "type": "SCALAR",
      "componentType": 5125,
      "count": 249,
      "bufferView": 1,
      "byteOffset": 38364
    },
    {
      "type": "SCALAR",
      "componentType": 5125,
      "count": 864,
      "bufferView": 1,
      "byteOffset": 39360
    },
    {
      "type": "SCALAR",
      "componentType": 5125,
      "count": 1350,
      "bufferView": 1,
      "byteOffset": 42816
    },
    {
      "type": "SCALAR",
      "componentType": 5125,
      "count": 720,
      "bufferView": 1,
      "byteOffset": 48216
    },
    {
      "type": "SCALAR",
      "componentType": 5125,
      "count": 192,
      "bufferView": 1,
      "byteOffset": 51096
    },
    {
      "type": "SCALAR",
      "componentType": 5125,
      "count": 2208,
      "bufferView": 1,
      "byteOffset": 51864
    },
    {
      "type": "SCALAR",
      "componentType": 5125,
      "count": 1350,
      "bufferView": 1,
      "byteOffset": 60696
    },
    {
      "type": "SCALAR",
      "componentType": 5125,
      "count": 720,
      "bufferView": 1,
      "byteOffset": 66096
    },
    {
      "type": "SCALAR",
      "componentType": 5125,
      "count": 192,
      "bufferView": 1,
      "byteOffset": 68976
    },
    {
      "type": "SCALAR",
      "componentType": 5125,
      "count": 2208,
      "bufferView": 1,
      "byteOffset": 69744
    },
    {
      "type": "SCALAR",
      "componentType": 5125,
      "count": 2676,
      "bufferView": 1,
      "byteOffset": 78576
    },
    {
      "type": "SCALAR",
      "componentType": 5125,
      "count": 7788,
      "bufferView": 1,
      "byteOffset": 89280
    },
    {
      "type": "SCALAR",
      "componentType": 5125,
      "count": 108,
      "bufferView": 1,
      "byteOffset": 120432
    },
    {
      "type": "SCALAR",
      "componentType": 5125,
      "count": 168,
      "bufferView": 1,
      "byteOffset": 120864
    },
    {
      "type": "SCALAR",
      "componentType": 5125,
      "count": 864,
      "bufferView": 1,
      "byteOffset": 121536
    },
    {
      "type": "SCALAR",
      "componentType": 5125,
      "count": 3,
      "bufferView": 1,
      "byteOffset": 124992
    },
    {
      "type": "SCALAR",
      "componentType": 5125,
      "count": 108,
      "bufferView": 1,
      "byteOffset": 125004
    },
    {
      "type": "SCALAR",
      "componentType": 5125,
      "count": 21,
      "bufferView": 1,
      "byteOffset": 125436
    },
    {
      "type": "SCALAR",
      "componentType": 5125,
      "count": 108,
      "bufferView": 1,
      "byteOffset": 125520
    },
    {
      "type": "SCALAR",
      "componentType": 5125,
      "count": 168,
      "bufferView": 1,
      "byteOffset": 125952
    },
    {
      "type": "SCALAR",
      "componentType": 5125,
      "count": 864,
      "bufferView": 1,
      "byteOffset": 126624
    },
    {
      "type": "SCALAR",
      "componentType": 5125,
      "count": 6,
      "bufferView": 1,
      "byteOffset": 130080
    },
    {
      "type": "SCALAR",
      "componentType": 5125,
      "count": 108,
      "bufferView": 1,
      "byteOffset": 130104
    },
    {
      "type": "SCALAR",
      "componentType": 5125,
      "count": 45,
      "bufferView": 1,
      "byteOffset": 130536
    },
    {
      "type": "SCALAR",
      "componentType": 5125,
      "count": 480,
      "bufferView": 1,
      "byteOffset": 130716
    },
    {
      "type": "SCALAR",
      "componentType": 5125,
      "count": 189,
      "bufferView": 1,
      "byteOffset": 132636
    },
    {
      "type": "SCALAR",
      "componentType": 5125,
      "count": 240,
      "bufferView": 1,
      "byteOffset": 133392
    },
    {
      "type": "SCALAR",
      "componentType": 5125,
      "count": 3852,
      "bufferView": 1,
      "byteOffset": 134352
    },
    {
      "type": "SCALAR",
      "componentType": 5125,
      "count": 3288,
      "bufferView": 1,
      "byteOffset": 149760
    },
    {
      "type": "SCALAR",
      "componentType": 5125,
      "count": 588,
      "bufferView": 1,
      "byteOffset": 162912
    },
    {
      "type": "SCALAR",
      "componentType": 5125,
      "count": 3348,
      "bufferView": 1,
      "byteOffset": 165264
    },
    {
      "type": "SCALAR",
      "componentType": 5125,
      "count": 696,
      "bufferView": 1,
      "byteOffset": 178656
    },
    {
      "type": "SCALAR",
      "componentType": 5125,
      "count": 3348,
      "bufferView": 1,
      "byteOffset": 181440
    },
    {
      "type": "SCALAR",
      "componentType": 5125,
      "count": 108,
      "bufferView": 1,
      "byteOffset": 194832
    },
    {
      "type": "SCALAR",
      "componentType": 5125,
      "count": 852,
      "bufferView": 1,
      "byteOffset": 195264
    },
    {
      "type": "SCALAR",
      "componentType": 5125,
      "count": 1674,
      "bufferView": 1,
      "byteOffset": 198672
    },
    {
      "type": "SCALAR",
      "componentType": 5125,
      "count": 852,
      "bufferView": 1,
      "byteOffset": 205368
    },
    {
      "type": "SCALAR",
      "componentType": 5125,
      "count": 1674,
      "bufferView": 1,
      "byteOffset": 208776
    },
    {
      "type": "SCALAR",
      "componentType": 5125,
      "count": 810,
      "bufferView": 1,
      "byteOffset": 215472
    },
    {
      "type": "SCALAR",
      "componentType": 5125,
      "count": 852,
      "bufferView": 1,
      "byteOffset": 218712
    }
  ],
  "bufferViews": [
    {
      "buffer": 0,
      "byteOffset": 0,
      "byteLength": 1776960,
      "byteStride": 32,
      "target": 34962
    },
    {
      "buffer": 0,
      "byteOffset": 1776960,
      "byteLength": 222120,
      "target": 34963
    }
  ],
  "buffers": [
    {
      "uri": "buffer.bin",
      "byteLength": 1999080
    }
  ],
  "materials": [
    {
      "name": "09 - Default",
      "pbrMetallicRoughness": {
        "baseColorFactor": [
          0,
          0.019607843831181526,
          0.38823533058166504,
          1
        ],
        "roughnessFactor": 0.8585786479773754,
        "metallicFactor": 0
      }
    },
    {
      "name": "13 - Default",
      "pbrMetallicRoughness": {
        "baseColorFactor": [
          0.9215686917304993,
          0.9215686917304993,
          0,
          1
        ],
        "roughnessFactor": 0.8585786479773754,
        "metallicFactor": 0
      }
    },
    {
      "name": "03 - Default",
      "pbrMetallicRoughness": {
        "baseColorFactor": [
          0.9215686917304993,
          0,
          0,
          1
        ],
        "roughnessFactor": 0.8585786479773754,
        "metallicFactor": 0
      }
    },
    {
      "name": "07 - Default",
      "pbrMetallicRoughness": {
        "baseColorFactor": [
          0.960784375667572,
          0.5490196347236633,
          0.46666669845581055,
          1
        ],
        "roughnessFactor": 0.8585786479773754,
        "metallicFactor": 0
      }
    },
    {
      "name": "08 - Default",
      "pbrMetallicRoughness": {
        "baseColorFactor": [
          0,
          0,
          0,
          1
        ],
        "roughnessFactor": 0.8585786479773754,
        "metallicFactor": 0
      }
    },
    {
      "name": "20 - Default",
      "pbrMetallicRoughness": {
        "baseColorFactor": [
          0.007843137718737125,
          0.760784387588501,
          0.7882353663444519,
          1
        ],
        "roughnessFactor": 0.8585786479773754,
        "metallicFactor": 0
      }
    },
    {
      "name": "15 - Default",
      "pbrMetallicRoughness": {
        "roughnessFactor": 0.8585786479773754,
        "metallicFactor": 0
      }
    },
    {
      "name": "03 - Default",
      "pbrMetallicRoughness": {
        "roughnessFactor": 0.8585786479773754,
        "metallicFactor": 0
      }
    },
    {
      "name": "01 - Default",
      "pbrMetallicRoughness": {
        "baseColorFactor": [
          0.5882353186607361,
          0.5882353186607361,
          0.5882353186607361,
          1
        ],
        "roughnessFactor": 0.8585786479773754,
        "metallicFactor": 0
      }
    },
    {
      "name": "19 - Default",
      "pbrMetallicRoughness": {
        "baseColorFactor": [
          0.14509804546833038,
          0.02352941408753395,
          0,
          1
        ],
        "roughnessFactor": 0.8585786479773754,
        "metallicFactor": 0
      }
    },
    {
      "name": "14 - Default",
      "pbrMetallicRoughness": {
        "baseColorFactor": [
          0.40000003576278687,
          0.1725490242242813,
          0.062745101749897,
          1
        ],
        "roughnessFactor": 0.8585786479773754,
        "metallicFactor": 0
      }
    }
  ],
  "meshes": [
    {
      "primitives": [
        {
          "attributes": {
            "POSITION": 0,
            "NORMAL": 1,
            "TEXCOORD_0": 2
          },
          "mode": 4,
          "material": 0,
          "indices": 3
        },
        {
          "attributes": {
            "POSITION": 0,
            "NORMAL": 1,
            "TEXCOORD_0": 2
          },
          "mode": 4,
          "material": 1,
          "indices": 4
        },
        {
          "attributes": {
            "POSITION": 0,
            "NORMAL": 1,
            "TEXCOORD_0": 2
          },
          "mode": 4,
          "material": 0,
          "indices": 5
        },
        {
          "attributes": {
            "POSITION": 0,
            "NORMAL": 1,
            "TEXCOORD_0": 2
          },
          "mode": 4,
          "material": 1,
          "indices": 6
        },
        {
          "attributes": {
            "POSITION": 0,
            "NORMAL": 1,
            "TEXCOORD_0": 2
          },
          "mode": 4,
          "material": 0,
          "indices": 7
        },
        {
          "attributes": {
            "POSITION": 0,
            "NORMAL": 1,
            "TEXCOORD_0": 2
          },
          "mode": 4,
          "material": 2,
          "indices": 8
        },
        {
          "attributes": {
            "POSITION": 0,
            "NORMAL": 1,
            "TEXCOORD_0": 2
          },
          "mode": 4,
          "material": 3,
          "indices": 9
        },
        {
          "attributes": {
            "POSITION": 0,
            "NORMAL": 1,
            "TEXCOORD_0": 2
          },
          "mode": 4,
          "material": 4,
          "indices": 10
        },
        {
          "attributes": {
            "POSITION": 0,
            "NORMAL": 1,
            "TEXCOORD_0": 2
          },
          "mode": 4,
          "material": 5,
          "indices": 11
        },
        {
          "attributes": {
            "POSITION": 0,
            "NORMAL": 1,
            "TEXCOORD_0": 2
          },
          "mode": 4,
          "material": 6,
          "indices": 12
        },
        {
          "attributes": {
            "POSITION": 0,
            "NORMAL": 1,
            "TEXCOORD_0": 2
          },
          "mode": 4,
          "material": 3,
          "indices": 13
        },
        {
          "attributes": {
            "POSITION": 0,
            "NORMAL": 1,
            "TEXCOORD_0": 2
          },
          "mode": 4,
          "material": 4,
          "indices": 14
        },
        {
          "attributes": {
            "POSITION": 0,
            "NORMAL": 1,
            "TEXCOORD_0": 2
          },
          "mode": 4,
          "material": 5,
          "indices": 15
        },
        {
          "attributes": {
            "POSITION": 0,
            "NORMAL": 1,
            "TEXCOORD_0": 2
          },
          "mode": 4,
          "material": 6,
          "indices": 16
        },
        {
          "attributes": {
            "POSITION": 0,
            "NORMAL": 1,
            "TEXCOORD_0": 2
          },
          "mode": 4,
          "material": 3,
          "indices": 17
        },
        {
          "attributes": {
            "POSITION": 0,
            "NORMAL": 1,
            "TEXCOORD_0": 2
          },
          "mode": 4,
          "material": 2,
          "indices": 18
        },
        {
          "attributes": {
            "POSITION": 0,
            "NORMAL": 1,
            "TEXCOORD_0": 2
          },
          "mode": 4,
          "material": 7,
          "indices": 19
        },
        {
          "attributes": {
            "POSITION": 0,
            "NORMAL": 1,
            "TEXCOORD_0": 2
          },
          "mode": 4,
          "material": 8,
          "indices": 20
        },
        {
          "attributes": {
            "POSITION": 0,
            "NORMAL": 1,
            "TEXCOORD_0": 2
          },
          "mode": 4,
          "material": 7,
          "indices": 21
        },
        {
          "attributes": {
            "POSITION": 0,
            "NORMAL": 1,
            "TEXCOORD_0": 2
          },
          "mode": 4,
          "material": 8,
          "indices": 22
        },
        {
          "attributes": {
            "POSITION": 0,
            "NORMAL": 1,
            "TEXCOORD_0": 2
          },
          "mode": 4,
          "material": 7,
          "indices": 23
        },
        {
          "attributes": {
            "POSITION": 0,
            "NORMAL": 1,
            "TEXCOORD_0": 2
          },
          "mode": 4,
          "material": 8,
          "indices": 24
        },
        {
          "attributes": {
            "POSITION": 0,
            "NORMAL": 1,
            "TEXCOORD_0": 2
          },
          "mode": 4,
          "material": 7,
          "indices": 25
        },
        {
          "attributes": {
            "POSITION": 0,
            "NORMAL": 1,
            "TEXCOORD_0": 2
          },
          "mode": 4,
          "material": 8,
          "indices": 26
        },
        {
          "attributes": {
            "POSITION": 0,
            "NORMAL": 1,
            "TEXCOORD_0": 2
          },
          "mode": 4,
          "material": 7,
          "indices": 27
        },
        {
          "attributes": {
            "POSITION": 0,
            "NORMAL": 1,
            "TEXCOORD_0": 2
          },
          "mode": 4,
          "material": 8,
          "indices": 28
        },
        {
          "attributes": {
            "POSITION": 0,
            "NORMAL": 1,
            "TEXCOORD_0": 2
          },
          "mode": 4,
          "material": 7,
          "indices": 29
        },
        {
          "attributes": {
            "POSITION": 0,
            "NORMAL": 1,
            "TEXCOORD_0": 2
          },
          "mode": 4,
          "material": 8,
          "indices": 30
        },
        {
          "attributes": {
            "POSITION": 0,
            "NORMAL": 1,
            "TEXCOORD_0": 2
          },
          "mode": 4,
          "material": 7,
          "indices": 31
        },
        {
          "attributes": {
            "POSITION": 0,
            "NORMAL": 1,
            "TEXCOORD_0": 2
          },
          "mode": 4,
          "material": 8,
          "indices": 32
        },
        {
          "attributes": {
            "POSITION": 0,
            "NORMAL": 1,
            "TEXCOORD_0": 2
          },
          "mode": 4,
          "material": 7,
          "indices": 33
        },
        {
          "attributes": {
            "POSITION": 0,
            "NORMAL": 1,
            "TEXCOORD_0": 2
          },
          "mode": 4,
          "material": 9,
          "indices": 34
        },
        {
          "attributes": {
            "POSITION": 0,
            "NORMAL": 1,
            "TEXCOORD_0": 2
          },
          "mode": 4,
          "material": 4,
          "indices": 35
        },
        {
          "attributes": {
            "POSITION": 0,
            "NORMAL": 1,
            "TEXCOORD_0": 2
          },
          "mode": 4,
          "material": 2,
          "indices": 36
        },
        {
          "attributes": {
            "POSITION": 0,
            "NORMAL": 1,
            "TEXCOORD_0": 2
          },
          "mode": 4,
          "material": 6,
          "indices": 37
        },
        {
          "attributes": {
            "POSITION": 0,
            "NORMAL": 1,
            "TEXCOORD_0": 2
          },
          "mode": 4,
          "material": 2,
          "indices": 38
        },
        {
          "attributes": {
            "POSITION": 0,
            "NORMAL": 1,
            "TEXCOORD_0": 2
          },
          "mode": 4,
          "material": 6,
          "indices": 39
        },
        {
          "attributes": {
            "POSITION": 0,
            "NORMAL": 1,
            "TEXCOORD_0": 2
          },
          "mode": 4,
          "material": 2,
          "indices": 40
        },
        {
          "attributes": {
            "POSITION": 0,
            "NORMAL": 1,
            "TEXCOORD_0": 2
          },
          "mode": 4,
          "material": 0,
          "indices": 41
        },
        {
          "attributes": {
            "POSITION": 0,
            "NORMAL": 1,
            "TEXCOORD_0": 2
          },
          "mode": 4,
          "material": 10,
          "indices": 42
        },
        {
          "attributes": {
            "POSITION": 0,
            "NORMAL": 1,
            "TEXCOORD_0": 2
          },
          "mode": 4,
          "material": 0,
          "indices": 43
        },
        {
          "attributes": {
            "POSITION": 0,
            "NORMAL": 1,
            "TEXCOORD_0": 2
          },
          "mode": 4,
          "material": 10,
          "indices": 44
        },
        {
          "attributes": {
            "POSITION": 0,
            "NORMAL": 1,
            "TEXCOORD_0": 2
          },
          "mode": 4,
          "material": 2,
          "indices": 45
        },
        {
          "attributes": {
            "POSITION": 0,
            "NORMAL": 1,
            "TEXCOORD_0": 2
          },
          "mode": 4,
          "material": 3,
          "indices": 46
        }
      ]
    }
  ],
  "nodes": [
    {
      "name": "Mario",
      "translation": [
        -7.172365188598633,
        -3.1480369567871094,
        4.488554000854492
      ],
      "mesh": 0
    },
    {
      "name": "FBX_Root",
      "children": [
        0
      ]
    }
  ],
  "scenes": [
    {
      "name": "empty_1",
      "nodes": [
        1
      ]
    }
  ],
  "scene": 0
}