{
    "asset" : {
        "generator" : "Khronos glTF Blender I/O v3.4.50",
        "version" : "2.0"
    },
    "scene" : 0,
    "scenes" : [
        {
            "name" : "Scene",
            "nodes" : [
                2
            ]
        }
    ],
    "nodes" : [
        {
            "mesh" : 0,
            "name" : "ak_12_low_poly",
            "translation" : [
                8.479921340942383,
                19.592334747314453,
                0.4339565932750702
            ]
        },
        {
            "mesh" : 1,
            "name" : "ak_12_low_poly_clear",
            "translation" : [
                8.479921340942383,
                19.592334747314453,
                0.4339565932750702
            ]
        },
        {
            "children" : [
                0,
                1
            ],
            "name" : "ak12_grp",
            "scale" : [
                100,
                100,
                100
            ]
        }
    ],
    "materials" : [
        {
            "doubleSided" : true,
            "name" : "ak_12.001",
            "normalTexture" : {
                "index" : 0
            },
            "pbrMetallicRoughness" : {
                "baseColorTexture" : {
                    "index" : 1
                },
                "metallicRoughnessTexture" : {
                    "index" : 2
                }
            }
        },
        {
            "alphaCutoff" : 0.5,
            "alphaMode" : "MASK",
            "doubleSided" : true,
            "name" : "ak_12_transmissive.001",
            "normalTexture" : {
                "index" : 3
            },
            "pbrMetallicRoughness" : {
                "baseColorTexture" : {
                    "index" : 4
                },
                "metallicRoughnessTexture" : {
                    "index" : 5
                }
            }
        }
    ],
    "meshes" : [
        {
            "name" : "Cylinder.003",
            "primitives" : [
                {
                    "attributes" : {
                        "POSITION" : 0,
                        "TEXCOORD_0" : 1,
                        "NORMAL" : 2
                    },
                    "indices" : 3,
                    "material" : 0
                }
            ]
        },
        {
            "name" : "Cylinder.004",
            "primitives" : [
                {
                    "attributes" : {
                        "POSITION" : 4,
                        "TEXCOORD_0" : 5,
                        "NORMAL" : 6
                    },
                    "indices" : 7,
                    "material" : 1
                }
            ]
        }
    ],
    "textures" : [
        {
            "sampler" : 0,
            "source" : 0
        },
        {
            "sampler" : 0,
            "source" : 1
        },
        {
            "sampler" : 0,
            "source" : 2
        },
        {
            "sampler" : 0,
            "source" : 0
        },
        {
            "sampler" : 0,
            "source" : 3
        },
        {
            "sampler" : 0,
            "source" : 2
        }
    ],
    "images" : [
        {
            "mimeType" : "image/png",
            "name" : "ak_12_transmissive_norm",
            "uri" : "ak_12_transmissive_norm.png"
        },
        {
            "mimeType" : "image/png",
            "name" : "ak_12_bcolor",
            "uri" : "ak_12_bcolor.png"
        },
        {
            "mimeType" : "image/png",
            "name" : "ak_12_metal-ak_12_transmissive_rough",
            "uri" : "ak_12_metal-ak_12_transmissive_rough.png"
        },
        {
            "mimeType" : "image/png",
            "name" : "ak_12_bcolor",
            "uri" : "ak_12_bcolor-1.png"
        }
    ],
    "accessors" : [
        {
            "bufferView" : 0,
            "componentType" : 5126,
            "count" : 116443,
            "max" : [
                38.279170989990234,
                8.063093185424805,
                2.0969338417053223
            ],
            "min" : [
                -55.239013671875,
                -19.592334747314453,
                -2.9648470878601074
            ],
            "type" : "VEC3"
        },
        {
            "bufferView" : 1,
            "componentType" : 5126,
            "count" : 116443,
            "type" : "VEC2"
        },
        {
            "bufferView" : 2,
            "componentType" : 5126,
            "count" : 116443,
            "type" : "VEC3"
        },
        {
            "bufferView" : 3,
            "componentType" : 5125,
            "count" : 401406,
            "type" : "SCALAR"
        },
        {
            "bufferView" : 4,
            "componentType" : 5126,
            "count" : 230,
            "max" : [
                -4.0270586013793945,
                -3.2403564453125,
                0.7686275243759155
            ],
            "min" : [
                -8.123361587524414,
                -13.101290702819824,
                -0.7586081624031067
            ],
            "type" : "VEC3"
        },
        {
            "bufferView" : 5,
            "componentType" : 5126,
            "count" : 230,
            "type" : "VEC2"
        },
        {
            "bufferView" : 6,
            "componentType" : 5126,
            "count" : 230,
            "type" : "VEC3"
        },
        {
            "bufferView" : 7,
            "componentType" : 5123,
            "count" : 630,
            "type" : "SCALAR"
        }
    ],
    "bufferViews" : [
        {
            "buffer" : 0,
            "byteLength" : 1397316,
            "byteOffset" : 0,
            "target" : 34962
        },
        {
            "buffer" : 0,
            "byteLength" : 931544,
            "byteOffset" : 1397316,
            "target" : 34962
        },
        {
            "buffer" : 0,
            "byteLength" : 1397316,
            "byteOffset" : 2328860,
            "target" : 34962
        },
        {
            "buffer" : 0,
            "byteLength" : 1605624,
            "byteOffset" : 3726176,
            "target" : 34963
        },
        {
            "buffer" : 0,
            "byteLength" : 2760,
            "byteOffset" : 5331800,
            "target" : 34962
        },
        {
            "buffer" : 0,
            "byteLength" : 1840,
            "byteOffset" : 5334560,
            "target" : 34962
        },
        {
            "buffer" : 0,
            "byteLength" : 2760,
            "byteOffset" : 5336400,
            "target" : 34962
        },
        {
            "buffer" : 0,
            "byteLength" : 1260,
            "byteOffset" : 5339160,
            "target" : 34963
        }
    ],
    "samplers" : [
        {
            "magFilter" : 9729,
            "minFilter" : 9987
        }
    ],
    "buffers" : [
        {
            "byteLength" : 5340420,
            "uri" : "ak12.bin"
        }
    ]
}
